<?xml version="1.0" encoding="UTF-8"?>
<svg width="90px" height="90px" viewBox="0 0 90 90" version="1.1" xmlns="http://www.w3.org/2000/svg" xmlns:xlink="http://www.w3.org/1999/xlink">
    <!-- Generator: Sketch 61 (89581) - https://sketch.com -->
    <title>Qnit_favicon_blue</title>
    <desc>Created with Sketch.</desc>
    <g id="Qnit_favicon_blue" stroke="none" stroke-width="1" fill="none" fill-rule="evenodd">
        <path d="M32.9054054,28 C36.2387387,28 39.3130631,28.625641 42.1283784,29.8769231 C44.9436937,31.1282051 47.3761261,32.8598901 49.4256757,35.071978 C51.4752252,37.2840659 53.0630631,39.8424908 54.1891892,42.7472527 C55.3153153,45.6520147 55.8783784,48.7802198 55.8783784,52.1318681 C55.8783784,55.4835165 55.3153153,58.6117216 54.1891892,61.5164835 C53.0630631,64.4212454 51.4752252,66.9796703 49.4256757,69.1917582 C47.3761261,71.4038462 44.9436937,73.1355311 42.1283784,74.3868132 L42.1283784,74.3868132 L41.6817025,74.5791848 C40.4848269,75.0783112 39.2420329,75.4665206 37.9533204,75.743813 L37.9533204,75.743813 L37.8209459,75.771044 L33.7956081,77.2533104 L33.8304711,77.2573603 C34.657079,77.3714095 35.4185435,77.565293 36.1148649,77.839011 C37.3085586,78.3082418 38.4459459,78.8333333 39.527027,79.4142857 C40.6081081,79.9952381 41.722973,80.5203297 42.8716216,80.9895604 C44.0202703,81.4587912 45.3378378,81.6934066 46.8243243,81.6934066 C48.0405405,81.6934066 49.0653153,81.4923077 49.8986486,81.0901099 C50.731982,80.6879121 51.463964,80.2410256 52.0945946,79.7494505 C52.8603604,79.1684982 53.5472973,78.6434066 54.1554054,78.1741758 C54.7635135,77.7049451 55.4279279,77.4703297 56.1486486,77.4703297 C57.0945946,77.4703297 57.972973,77.8613553 58.7837838,78.6434066 C59.5945946,79.4254579 60,80.3304029 60,81.3582418 C60,82.3860806 59.5382883,83.3580586 58.6148649,84.2741758 C57.6914414,85.190293 56.509009,86.0058608 55.0675676,86.7208791 C53.6261261,87.4358974 52.1283784,87.9945055 50.5743243,88.3967033 C49.0202703,88.7989011 47.6126126,89 46.3513514,89 C43.5585586,89 41.3288288,88.7430403 39.6621622,88.2291209 C37.9954955,87.7152015 36.6216216,87.1342491 35.5405405,86.4862637 C34.4594595,85.8382784 33.4459459,85.257326 32.5,84.7434066 C31.5540541,84.2294872 30.4054054,83.9725275 29.0540541,83.9725275 C28.1981982,83.9725275 27.5112613,84.1177656 26.9932432,84.4082418 C26.4752252,84.6987179 25.9121622,84.9891941 25.3040541,85.2796703 C24.6959459,85.5701465 23.8513514,85.7153846 22.7702703,85.7153846 C21.6441441,85.7153846 20.6981982,85.2908425 19.9324324,84.4417582 C19.1666667,83.592674 18.7837838,82.6765568 18.7837838,81.6934066 L18.7837838,81.6934066 L18.7875676,81.4870523 C18.8481081,79.8585266 19.6351351,78.7654066 21.1486486,78.2076923 L21.1486486,78.2076923 L27.8403716,75.7383654 L27.3876993,75.6346291 C26.1159567,75.3296074 24.892129,74.9136688 23.7162162,74.3868132 C20.9234234,73.1355311 18.5022523,71.4038462 16.4527027,69.1917582 C14.4031532,66.9796703 12.8153153,64.4212454 11.6891892,61.5164835 C10.5630631,58.6117216 10,55.4835165 10,52.1318681 C10,48.7802198 10.5630631,45.6520147 11.6891892,42.7472527 C12.8153153,39.8424908 14.4031532,37.2840659 16.4527027,35.071978 C18.5022523,32.8598901 20.9234234,31.1282051 23.7162162,29.8769231 C26.509009,28.625641 29.5720721,28 32.9054054,28 Z M32.9665871,36 C30.2044551,36 27.7764519,36.7111111 25.6825776,38.1333333 C23.5887033,39.5555556 21.9514718,41.4666667 20.7708831,43.8666667 C19.5902944,46.2666667 19,48.9777778 19,52 C19,54.9777778 19.5902944,57.6777778 20.7708831,60.1 C21.9514718,62.5222222 23.5887033,64.4444444 25.6825776,65.8666667 C27.7764519,67.2888889 30.2044551,68 32.9665871,68 C35.7287192,68 38.1567224,67.2888889 40.2505967,65.8666667 C42.344471,64.4444444 43.9928401,62.5222222 45.1957041,60.1 C46.398568,57.6777778 47,54.9777778 47,52 C47,49.0222222 46.398568,46.3222222 45.1957041,43.9 C43.9928401,41.4777778 42.344471,39.5555556 40.2505967,38.1333333 C38.1567224,36.7111111 35.7287192,36 32.9665871,36 Z M66.5,-1.77635684e-15 C76.7172679,-1.77635684e-15 85,8.28273213 85,18.5 C85,28.7172679 76.7172679,37 66.5,37 C56.2827321,37 48,28.7172679 48,18.5 C48,8.28273213 56.2827321,-1.77635684e-15 66.5,-1.77635684e-15 Z M66.5,5.01937985 C59.0548591,5.01937985 53.0193798,11.0548591 53.0193798,18.5 C53.0193798,25.9451409 59.0548591,31.9806201 66.5,31.9806201 C73.9451409,31.9806201 79.9806201,25.9451409 79.9806201,18.5 C79.9806201,11.0548591 73.9451409,5.01937985 66.5,5.01937985 Z M68.9597471,13.2632093 C70.1358595,12.0872403 72.0427936,12.0872403 73.2186192,13.2633527 C74.3947316,14.4394651 74.3947316,16.3463992 73.2186192,17.5225117 L73.2186192,17.5225117 L67.0997083,23.6412791 C65.9235959,24.8173915 64.0166618,24.8172481 62.8406929,23.6412791 L62.8406929,23.6412791 L59.7813091,20.5818953 C58.6051967,19.4057829 58.6051967,17.4989922 59.7813091,16.3228799 C60.9574215,15.1467674 62.8643556,15.146624 64.0404681,16.3227365 L64.0404681,16.3227365 L64.9703439,17.2526123 Z" id="Combined-Shape" fill="#070655"></path>
    </g>
</svg>