<?xml version="1.0" encoding="UTF-8"?>
<svg width="176px" height="95px" viewBox="0 0 176 95" version="1.1" xmlns="http://www.w3.org/2000/svg" xmlns:xlink="http://www.w3.org/1999/xlink">
    <!-- Generator: Sketch 61 (89581) - https://sketch.com -->
    <title>Qnit_logo_blue</title>
    <desc>Created with Sketch.</desc>
    <g id="Qnit_logo_blue" stroke="none" stroke-width="1" fill="none" fill-rule="evenodd">
        <path d="M43.0737834,95 C44.5682889,95 46.2362637,94.7584331 48.077708,94.2752992 C49.9191523,93.7921654 51.6938776,93.1211462 53.4018838,92.2622416 C55.1098901,91.403337 56.510989,90.4236489 57.6051805,89.3231774 C58.6993721,88.2227058 59.2464678,87.0551324 59.2464678,85.820457 C59.2464678,84.5857816 58.7660911,83.4987305 57.8053375,82.5593036 C56.844584,81.6198767 55.8037677,81.1501632 54.6828885,81.1501632 C53.8288854,81.1501632 53.0416013,81.4319913 52.3210361,81.9956474 C51.600471,82.5593036 50.7864992,83.1900617 49.8791209,83.8879217 C49.1318681,84.4784186 48.2645212,85.0152339 47.2770801,85.4983678 C46.2896389,85.9815016 45.0753532,86.2230686 43.6342229,86.2230686 C41.8728414,86.2230686 40.311617,85.9412405 38.9505495,85.3775843 C37.5894819,84.8139282 36.2684458,84.1831701 34.9874411,83.4853101 C33.7064364,82.7874501 32.3587127,82.1566921 30.94427,81.5930359 C30.1191784,81.2642365 29.2168967,81.0313369 28.2374248,80.8943371 L28.1961146,80.8894723 L32.9658556,79.1089227 L33.1227099,79.0762119 C34.6497432,78.7431187 36.1223664,78.2767883 37.5405793,77.6772205 L38.0698587,77.4461371 C41.4058085,75.943054 44.2880691,73.8628945 46.7166405,71.2056583 C49.1452119,68.5484222 51.0266876,65.4751542 52.3610675,61.9858542 C53.6954474,58.4965542 54.3626374,54.7388466 54.3626374,50.7127312 C54.3626374,46.6866159 53.6954474,42.9289082 52.3610675,39.4396083 C51.0266876,35.9503083 49.1452119,32.8770403 46.7166405,30.2198041 C44.2880691,27.562568 41.4058085,25.4824084 38.0698587,23.9793254 C34.7339089,22.4762423 31.0910518,21.7247008 27.1412873,21.7247008 C23.1915228,21.7247008 19.5620094,22.4762423 16.2527473,23.9793254 C12.9434851,25.4824084 10.0745683,27.562568 7.64599686,30.2198041 C5.21742543,32.8770403 3.33594976,35.9503083 2.00156986,39.4396083 C0.667189953,42.9289082 0,46.6866159 0,50.7127312 C0,54.7388466 0.667189953,58.4965542 2.00156986,61.9858542 C3.33594976,65.4751542 5.21742543,68.5484222 7.64599686,71.2056583 C10.0745683,73.8628945 12.9434851,75.943054 16.2527473,77.4461371 C17.6461208,78.0790142 19.0962702,78.578654 20.6031954,78.9450565 L21.1395801,79.0696681 L13.2103611,82.0359086 C11.4169545,82.7058542 10.484383,84.0189476 10.4126468,85.9751887 L10.4081633,86.2230686 C10.4081633,87.4040624 10.8618524,88.5045339 11.7692308,89.5244831 C12.6766091,90.5444324 13.7974882,91.054407 15.1318681,91.054407 C16.4128728,91.054407 17.4136578,90.879942 18.1342229,90.531012 C18.8547881,90.182082 19.521978,89.833152 20.1357928,89.484222 C20.7496075,89.135292 21.5635793,88.960827 22.577708,88.960827 C24.1789639,88.960827 25.5400314,89.2694958 26.6609105,89.8868335 C27.7817896,90.5041712 28.9827316,91.2020312 30.2637363,91.9804135 C31.544741,92.7587958 33.1726845,93.4566558 35.1475667,94.0739935 C37.122449,94.6913312 39.7645212,95 43.0737834,95 Z M27.1412873,70.0380849 C23.8320251,70.0380849 20.9230769,69.1791803 18.4144427,67.4613711 C15.9058085,65.7435618 13.94427,63.4218353 12.5298273,60.4961915 C11.1153846,57.5705477 10.4081633,54.3093943 10.4081633,50.7127312 C10.4081633,47.0623867 11.1153846,43.7878128 12.5298273,40.8890098 C13.94427,37.9902067 15.9058085,35.6819006 18.4144427,33.9640914 C20.9230769,32.2462822 23.8320251,31.3873776 27.1412873,31.3873776 C30.4505495,31.3873776 33.3594976,32.2462822 35.8681319,33.9640914 C38.3767661,35.6819006 40.3516484,38.0036271 41.7927786,40.9292709 C43.2339089,43.8549148 43.9544741,47.1160682 43.9544741,50.7127312 C43.9544741,54.3093943 43.2339089,57.5705477 41.7927786,60.4961915 C40.3516484,63.4218353 38.3767661,65.7435618 35.8681319,67.4613711 C33.3594976,69.1791803 30.4505495,70.0380849 27.1412873,70.0380849 Z M94.9544741,78.8955386 C96.3422292,78.8955386 97.4897959,78.4258252 98.3971743,77.4863983 C99.3045526,76.5469713 99.7582418,75.3793979 99.7582418,73.9836779 L99.7582418,73.9836779 L99.7582418,53.3699674 C99.7582418,49.9880305 99.3712716,46.9147624 98.5973312,44.1501632 C97.8233909,41.385564 96.4089482,39.1712006 94.3540031,37.5070729 C92.2990581,35.8429452 89.2967033,35.0108814 85.3469388,35.0108814 C83.5321821,35.0108814 81.8508634,35.2927095 80.3029827,35.8563656 C78.755102,36.4200218 77.3673469,37.1581429 76.1397174,38.0707291 C74.9120879,38.9833152 73.844584,39.9630033 72.9372057,41.0097933 C72.6347462,41.3587232 72.3560091,41.7001975 72.1009942,42.0342159 L72.0565149,42.0938248 L72.0565149,40.7279652 C72.0565149,39.4252932 71.6613012,38.3213622 70.8708739,37.4161722 L70.6954474,37.2252448 C69.7880691,36.2858179 68.6405024,35.8161045 67.2527473,35.8161045 C65.8649922,35.8161045 64.7174254,36.2858179 63.8100471,37.2252448 C62.9026688,38.1646717 62.4489796,39.3322452 62.4489796,40.7279652 L62.4489796,40.7279652 L62.4489796,73.9836779 C62.4489796,75.3793979 62.9026688,76.5469713 63.8100471,77.4863983 C64.7174254,78.4258252 65.8649922,78.8955386 67.2527473,78.8955386 C68.6405024,78.8955386 69.7880691,78.4258252 70.6954474,77.4863983 C71.6028257,76.5469713 72.0565149,75.3793979 72.0565149,73.9836779 L72.0565149,73.9836779 L72.0565149,53.3699674 C72.0565149,51.5984766 72.4434851,50.0014509 73.2174254,48.5788901 C73.9913658,47.1563293 75.1122449,46.0155967 76.5800628,45.1566921 C78.0478807,44.2977875 79.8492936,43.8683351 81.9843014,43.8683351 C84.1726845,43.8683351 85.8540031,44.2977875 87.0282575,45.1566921 C88.2025118,46.0155967 89.0164835,47.1563293 89.4701727,48.5788901 C89.9238619,50.0014509 90.1507064,51.5984766 90.1507064,53.3699674 L90.1507064,53.3699674 L90.1507064,73.9836779 C90.1507064,75.3793979 90.6043956,76.5469713 91.5117739,77.4863983 C92.4191523,78.4258252 93.566719,78.8955386 94.9544741,78.8955386 Z M114.32967,30.5821545 C116.144427,30.5821545 117.452119,30.3003264 118.252747,29.7366703 C119.053375,29.1730141 119.453689,28.1128038 119.453689,26.5560392 L119.453689,26.5560392 L119.453689,25.0261153 C119.453689,23.5230323 119.080063,22.4762423 118.33281,21.8857454 C117.585557,21.2952485 116.277865,21 114.409733,21 C112.701727,21 111.434066,21.2818281 110.60675,21.8454842 C109.779435,22.4091404 109.365777,23.4693507 109.365777,25.0261153 L109.365777,25.0261153 L109.365777,26.5560392 C109.365777,28.0591222 109.739403,29.1059122 110.486656,29.6964091 C111.233909,30.2869061 112.514914,30.5821545 114.32967,30.5821545 Z M114.409733,78.8955386 C115.797488,78.8955386 116.945055,78.4258252 117.852433,77.4863983 C118.759812,76.5469713 119.213501,75.3793979 119.213501,73.9836779 L119.213501,73.9836779 L119.213501,40.7279652 C119.213501,39.3322452 118.759812,38.1646717 117.852433,37.2252448 C116.945055,36.2858179 115.797488,35.8161045 114.409733,35.8161045 C113.021978,35.8161045 111.874411,36.2858179 110.967033,37.2252448 C110.059655,38.1646717 109.605965,39.3322452 109.605965,40.7279652 L109.605965,40.7279652 L109.605965,73.9836779 C109.605965,75.3793979 110.059655,76.5469713 110.967033,77.4863983 C111.874411,78.4258252 113.021978,78.8955386 114.409733,78.8955386 Z M138.10832,26.5560392 C139.496075,26.5560392 140.630298,27.0257526 141.510989,27.9651795 L141.510989,27.9651795 L141.681256,28.1561069 C142.448435,29.0612969 142.832025,30.1652279 142.832025,31.4678999 L142.832025,31.4678999 L142.832025,36.6213275 L148.516484,36.6213275 L148.769838,36.6270536 C149.938873,36.6804965 150.921926,37.1080401 151.718995,37.9096844 C152.572998,38.768589 153,39.8422198 153,41.1305767 C153,42.3652521 152.572998,43.3986217 151.718995,44.2306855 L151.718995,44.2306855 L151.532727,44.4026171 C150.711402,45.1200599 149.705988,45.4787813 148.516484,45.4787813 L148.516484,45.4787813 L142.832025,45.4787813 L142.832025,67.3003264 L142.837461,67.5458698 C142.866455,68.1873973 143.011425,68.7228872 143.27237,69.1523395 C143.565934,69.6354733 143.966248,69.9844033 144.473312,70.1991295 C144.980377,70.4138556 145.527473,70.5212187 146.1146,70.5212187 C146.755102,70.5212187 147.342229,70.4004353 147.875981,70.1588683 C148.409733,69.9173014 149.023548,69.796518 149.717425,69.796518 C150.464678,69.796518 151.145212,70.145448 151.759027,70.8433079 C152.372841,71.5411679 152.679749,72.5074356 152.679749,73.742111 C152.679749,75.2451941 151.865777,76.4798694 150.237834,77.4461371 C148.60989,78.4124048 146.861852,78.8955386 144.993721,78.8955386 C143.872841,78.8955386 142.631868,78.8015959 141.270801,78.6137106 C139.909733,78.4258252 138.628728,77.9695321 137.427786,77.2448313 C136.226845,76.5201306 135.22606,75.4062387 134.425432,73.9031556 L134.425432,73.9031556 L134.2883,73.6320546 C133.579093,72.1549764 133.22449,70.1786042 133.22449,67.702938 L133.22449,67.702938 L133.22449,45.4787813 L129.541601,45.4787813 L129.288247,45.4730553 C128.119212,45.4196123 127.136159,44.9920687 126.339089,44.1904244 C125.485086,43.3315198 125.058085,42.257889 125.058085,40.9695321 C125.058085,39.7348567 125.485086,38.7014871 126.339089,37.8694233 L126.339089,37.8694233 L126.525358,37.6974917 C127.346682,36.9800489 128.352097,36.6213275 129.541601,36.6213275 L129.541601,36.6213275 L133.22449,36.6213275 L133.22449,31.4678999 L133.230717,31.1917978 C133.288837,29.9175174 133.753794,28.841978 134.625589,27.9651795 C135.559655,27.0257526 136.720565,26.5560392 138.10832,26.5560392 Z M163.5,0 C170.403559,0 176,5.59644063 176,12.5 C176,19.4035594 170.403559,25 163.5,25 C156.596441,25 151,19.4035594 151,12.5 C151,5.59644063 156.596441,0 163.5,0 Z M163.5,3.39147287 C158.469499,3.39147287 154.391473,7.46949937 154.391473,12.5 C154.391473,17.5305006 158.469499,21.6085271 163.5,21.6085271 C168.530501,21.6085271 172.608527,17.5305006 172.608527,12.5 C172.608527,7.46949937 168.530501,3.39147287 163.5,3.39147287 Z M165.161991,8.96162791 C165.956662,8.16705426 167.245131,8.16705426 168.039608,8.96172481 C168.834278,9.75639535 168.834278,11.0448643 168.039608,11.8395349 L168.039608,11.8395349 L163.905208,15.9738372 C163.110538,16.7685078 161.822069,16.7684109 161.027495,15.9738372 L161.027495,15.9738372 L158.960344,13.906686 C158.165673,13.1120155 158.165673,11.8236434 158.960344,11.0289729 C159.755015,10.2343023 161.043483,10.2342054 161.838154,11.028876 L161.838154,11.028876 L162.466449,11.6571705 Z" id="Qnit" fill="#070656" fill-rule="nonzero"></path>
    </g>
</svg>